<?xml version="1.0" encoding="utf-8"?>
<!-- Generator: Adobe Illustrator 19.2.0, SVG Export Plug-In . SVG Version: 6.00 Build 0)  -->
<svg version="1.1" id="Layer_1" xmlns="http://www.w3.org/2000/svg" xmlns:xlink="http://www.w3.org/1999/xlink" x="0px" y="0px"
	 viewBox="0 0 128 192" style="enable-background:new 0 0 128 192;" xml:space="preserve">
<style type="text/css">
	.st0{fill:#FF5571;}
	.st1{fill:#FFD4DC;}
</style>
<path class="st0" d="M1,154.6c2.2,5.6,10,16.3,20.5,23.7c17.1,12,45.2,15.6,55.4,0c10.5-16.1-3.2-36.6-4.3-38.4
	c-6-9.6-19.7-19.3-28.7-23.3c36.5-6.2,64.9-23.9,76.4-49.7c5.9-13.4,10.8-36.7-0.4-50.6C101.4-6.4,44.9,1.8,17.5,33.1
	C6.8,45.3,3.1,58.7,1,66.7V154.6z"/>
<ellipse transform="matrix(0.8136 -0.5814 0.5814 0.8136 -21.8071 48.7838)" class="st1" cx="65.2" cy="58.4" rx="51.8" ry="32.4"/>
<ellipse transform="matrix(0.647 -0.7625 0.7625 0.647 -102.4251 84.192)" class="st1" cx="39.7" cy="152.7" rx="18.7" ry="29.9"/>
</svg>
