<?xml version="1.0" encoding="utf-8"?>
<!-- Generator: Adobe Illustrator 19.2.0, SVG Export Plug-In . SVG Version: 6.00 Build 0)  -->
<svg version="1.1" id="Layer_1" xmlns="http://www.w3.org/2000/svg" xmlns:xlink="http://www.w3.org/1999/xlink" x="0px" y="0px"
	 viewBox="0 0 128 192" style="enable-background:new 0 0 128 192;" xml:space="preserve">
<style type="text/css">
	.st0{fill:#FF5571;}
	.st1{fill:#FFD4DC;}
</style>
<path class="st0" d="M127,66.7c-2.1-8-5.8-21.4-16.5-33.6C83.1,1.8,26.6-6.4,8.1,16.3C-3.1,30.2,1.8,53.5,7.7,66.9
	c11.5,25.8,39.9,43.5,76.4,49.7c-9,4-22.7,13.7-28.7,23.3c-1.1,1.8-14.8,22.3-4.3,38.4c10.2,15.6,38.3,12,55.4,0
	c10.5-7.4,18.3-18.1,20.5-23.7V66.7z"/>
<ellipse transform="matrix(0.5814 -0.8136 0.8136 0.5814 -21.2468 75.5279)" class="st1" cx="62.8" cy="58.4" rx="32.4" ry="51.8"/>
<ellipse transform="matrix(0.7625 -0.647 0.647 0.7625 -77.8135 93.3934)" class="st1" cx="88.3" cy="152.7" rx="29.9" ry="18.7"/>
</svg>
