<?xml version="1.0" encoding="utf-8"?>
<!-- Generator: Adobe Illustrator 19.2.0, SVG Export Plug-In . SVG Version: 6.00 Build 0)  -->
<svg version="1.1" id="Layer_1" xmlns="http://www.w3.org/2000/svg" xmlns:xlink="http://www.w3.org/1999/xlink" x="0px" y="0px"
	 viewBox="0 0 256 79.3" style="enable-background:new 0 0 256 79.3;" xml:space="preserve">
<style type="text/css">
	.st0{fill:url(#SVGID_1_);}
	.st1{filter:url(#Adobe_OpacityMaskFilter);}
	.st2{opacity:0.2;mask:url(#SVGID_2_);}
	.st3{fill:#FFFFFF;}
	.st4{fill:url(#SVGID_3_);}
	.st5{filter:url(#Adobe_OpacityMaskFilter_1_);}
	.st6{opacity:0.2;mask:url(#SVGID_4_);}
	.st7{fill:url(#SVGID_5_);}
	.st8{fill:url(#SVGID_6_);}
	.st9{fill:url(#SVGID_7_);}
	.st10{filter:url(#Adobe_OpacityMaskFilter_2_);}
	.st11{opacity:0.2;mask:url(#SVGID_8_);}
</style>
<g>
	
		<image style="overflow:visible;opacity:0.5;" width="250" height="89" xlink:href="5479FA0DB325BDB6.png"  transform="matrix(1 0 0 1 7 0.3972)">
	</image>
	<g>
		<g>
			<linearGradient id="SVGID_1_" gradientUnits="userSpaceOnUse" x1="19" y1="41.855" x2="238.6418" y2="41.855">
				<stop  offset="0" style="stop-color:#000000"/>
				<stop  offset="1" style="stop-color:#121212"/>
			</linearGradient>
			<path class="st0" d="M42.5,12.5l-16.6,2.7c-4,0.7-6.9,4.1-6.9,8.1V24c0,4.6,3.8,8.3,8.4,8.2l145-3.7c2.1-0.1,4.2,0.7,5.8,2.2
				l42.1,38.5c2.2,2,5.3,2.7,8.1,1.7l4.5-1.5c6.3-2.1,7.7-10.4,2.3-14.4l-49.4-37c-1.4-1-3-1.6-4.7-1.6L44,12.4
				C43.5,12.4,43,12.4,42.5,12.5z"/>
		</g>
		<defs>
			<filter id="Adobe_OpacityMaskFilter" filterUnits="userSpaceOnUse" x="19" y="12.4" width="219.6" height="58.9">
				
					<feColorMatrix  type="matrix" values="-1 0 0 0 1  0 -1 0 0 1  0 0 -1 0 1  0 0 0 1 0" color-interpolation-filters="sRGB" result="source"/>
			</filter>
		</defs>
		<mask maskUnits="userSpaceOnUse" x="19" y="12.4" width="219.6" height="58.9" id="SVGID_2_">
			<g class="st1">
				
					<image style="overflow:visible;" width="224" height="63" xlink:href="5479FA0DB325BDBA.jpg"  transform="matrix(1 0 0 1 17 10.3972)">
				</image>
			</g>
		</mask>
		<g class="st2">
			<path class="st3" d="M42.5,12.5l-16.6,2.7c-4,0.7-6.9,4.1-6.9,8.1V24c0,4.6,3.8,8.3,8.4,8.2l145-3.7c2.1-0.1,4.2,0.7,5.8,2.2
				l42.1,38.5c2.2,2,5.3,2.7,8.1,1.7l4.5-1.5c6.3-2.1,7.7-10.4,2.3-14.4l-49.4-37c-1.4-1-3-1.6-4.7-1.6L44,12.4
				C43.5,12.4,43,12.4,42.5,12.5z"/>
		</g>
	</g>
</g>
<g>
	
		<image style="overflow:visible;opacity:0.5;" width="251" height="89" xlink:href="5479FA0DB325BDBA.png"  transform="matrix(1 0 0 1 6 0.3972)">
	</image>
	<g>
		<g>
			<linearGradient id="SVGID_3_" gradientUnits="userSpaceOnUse" x1="19" y1="41.855" x2="238.6418" y2="41.855">
				<stop  offset="0" style="stop-color:#0F0F0F"/>
				<stop  offset="1" style="stop-color:#000000"/>
			</linearGradient>
			<path class="st4" d="M215.2,12.5l16.6,2.7c4,0.7,6.9,4.1,6.9,8.1V24c0,4.6-3.8,8.3-8.4,8.2l-145-3.7c-2.1-0.1-4.2,0.7-5.8,2.2
				L37.3,69.1c-2.2,2-5.3,2.7-8.1,1.7l-4.5-1.5C18.3,67.3,17,58.9,22.3,55l49.4-37c1.4-1,3-1.6,4.7-1.6l137.2-3.9
				C214.1,12.4,214.7,12.4,215.2,12.5z"/>
		</g>
		<defs>
			<filter id="Adobe_OpacityMaskFilter_1_" filterUnits="userSpaceOnUse" x="19" y="12.4" width="219.6" height="58.9">
				
					<feColorMatrix  type="matrix" values="-1 0 0 0 1  0 -1 0 0 1  0 0 -1 0 1  0 0 0 1 0" color-interpolation-filters="sRGB" result="source"/>
			</filter>
		</defs>
		<mask maskUnits="userSpaceOnUse" x="19" y="12.4" width="219.6" height="58.9" id="SVGID_4_">
			<g class="st5">
				
					<image style="overflow:visible;" width="225" height="63" xlink:href="5479FA0DB325BDBE.jpg"  transform="matrix(1 0 0 1 16 10.3972)">
				</image>
			</g>
		</mask>
		<g class="st6">
			<path class="st3" d="M215.2,12.5l16.6,2.7c4,0.7,6.9,4.1,6.9,8.1V24c0,4.6-3.8,8.3-8.4,8.2l-145-3.7c-2.1-0.1-4.2,0.7-5.8,2.2
				L37.3,69.1c-2.2,2-5.3,2.7-8.1,1.7l-4.5-1.5C18.3,67.3,17,58.9,22.3,55l49.4-37c1.4-1,3-1.6,4.7-1.6l137.2-3.9
				C214.1,12.4,214.7,12.4,215.2,12.5z"/>
		</g>
	</g>
</g>
<linearGradient id="SVGID_5_" gradientUnits="userSpaceOnUse" x1="32.124" y1="40.6995" x2="115.5925" y2="40.6995">
	<stop  offset="0" style="stop-color:#FFFFFF;stop-opacity:0.5"/>
	<stop  offset="1" style="stop-color:#FFFFFF;stop-opacity:0.2"/>
</linearGradient>
<polygon class="st7" points="35.9,19 48.7,14.5 97.7,14.1 115.6,25.5 106.6,62.4 85.6,67.3 50.1,66.9 36.6,57.9 32.1,28.6 "/>
<linearGradient id="SVGID_6_" gradientUnits="userSpaceOnUse" x1="16.124" y1="40.6995" x2="99.5925" y2="40.6995" gradientTransform="matrix(-1 0 0 1 239.7164 0)">
	<stop  offset="0" style="stop-color:#FFFFFF;stop-opacity:0.2"/>
	<stop  offset="1" style="stop-color:#FFFFFF;stop-opacity:0.5"/>
</linearGradient>
<polygon class="st8" points="219.8,19 207,14.5 158.1,14.1 140.1,25.5 149.1,62.4 170.1,67.3 205.7,66.9 219.1,57.9 223.6,28.6 "/>
<g>
	
		<image style="overflow:visible;opacity:0.2;" width="232" height="74" xlink:href="5479FA0DB325BDBE.png"  transform="matrix(1 0 0 1 13 4.3972)">
	</image>
	<g>
		<g>
			<linearGradient id="SVGID_7_" gradientUnits="userSpaceOnUse" x1="18.2692" y1="40.4418" x2="237.9491" y2="40.4418">
				<stop  offset="0" style="stop-color:#2E2E2E"/>
				<stop  offset="1" style="stop-color:#000000"/>
			</linearGradient>
			<path class="st9" d="M232.3,15.1l-21.3-3.4c-1.6-0.5-3.2-0.9-4.9-1l-0.2,0l-41.1-1.1c-3.1-0.2-6.3,0.3-9.3,1.4l-2.7,1
				c-2.5,1-4.9,2.4-6.9,4.1l-18,3.4v0L110.1,16c-1.9-1.7-4.2-3.1-6.7-4.1l-2.7-1c-2.9-1.1-6.1-1.6-9.3-1.4l-41.1,1.1l-0.2,0
				c-1.7,0.1-3.3,0.5-4.9,1L24,15.1c0,0-7.1,2.7-5.4,9.6c1.7,6.9,5.5,8.2,9.4,8.1c0.8,0,1.5-0.1,2.1-0.2c-0.1,1.5-0.1,3,0.1,4.4
				L32,52C33.4,63,42.7,71.4,53.8,71.4c0,0,0.1,0,0.1,0l38.7-0.5C103,70.9,112,63.3,114,53.1l3.2-16.4c0-0.2,0.1-0.5,0.1-0.7
				c2.8-3.4,6.7-2.4,10.8-3.5v0c4,1.1,8.1,0.1,10.9,3.5c0,0.2,0.1,0.5,0.2,0.7l3.2,16.4c2,10.2,11,17.8,21.4,17.9l38.7,0.5
				c0,0,0.1,0,0.1,0c11,0,20.3-8.5,21.7-19.4l1.9-14.9c0.2-1.5,0.2-2.9,0.1-4.4c0.6,0.1,1.3,0.2,2.1,0.2c3.8,0.1,7.7-1.2,9.4-8.1
				C239.4,17.8,232.3,15.1,232.3,15.1z M110.2,35.3l-3.2,16.4c-1.3,7-7.5,12.3-14.6,12.3l-38.7,0.5c0,0-0.1,0-0.1,0
				c-7.5,0-13.8-5.8-14.8-13.3l-1.9-14.8c-0.6-4.5,0.9-9.5,4-13.3c2.6-3.2,6-5.1,9.6-5.4l41.1-1.1l0.2,0c2.1-0.2,4.4,0.2,6.4,0.9
				l2.7,1C107.7,21.1,111.6,28.1,110.2,35.3z M219.1,36.3l-1.9,14.8c-0.9,7.4-7.3,13.3-14.8,13.3c0,0-0.1,0-0.1,0l-38.7-0.5
				c-7.1,0-13.2-5.4-14.6-12.3L146,35.2c-1.4-7.1,2.5-14.2,9.3-16.8l2.7-1c2-0.8,4.2-1.1,6.4-0.9l0.2,0l41.1,1.1
				c3.6,0.3,7,2.2,9.6,5.4C218.2,26.8,219.7,31.8,219.1,36.3z"/>
		</g>
		<defs>
			<filter id="Adobe_OpacityMaskFilter_2_" filterUnits="userSpaceOnUse" x="18.3" y="9.5" width="219.7" height="61.9">
				
					<feColorMatrix  type="matrix" values="-1 0 0 0 1  0 -1 0 0 1  0 0 -1 0 1  0 0 0 1 0" color-interpolation-filters="sRGB" result="source"/>
			</filter>
		</defs>
		<mask maskUnits="userSpaceOnUse" x="18.3" y="9.5" width="219.7" height="61.9" id="SVGID_8_">
			<g class="st10">
				
					<image style="overflow:visible;" width="224" height="66" xlink:href="5479FA0DB325BDBB.jpg"  transform="matrix(1 0 0 1 16 7.3972)">
				</image>
			</g>
		</mask>
		<g class="st11">
			<path class="st3" d="M232.3,15.1l-21.3-3.4c-1.6-0.5-3.2-0.9-4.9-1l-0.2,0l-41.1-1.1c-3.1-0.2-6.3,0.3-9.3,1.4l-2.7,1
				c-2.5,1-4.9,2.4-6.9,4.1l-18,3.4v0L110.1,16c-1.9-1.7-4.2-3.1-6.7-4.1l-2.7-1c-2.9-1.1-6.1-1.6-9.3-1.4l-41.1,1.1l-0.2,0
				c-1.7,0.1-3.3,0.5-4.9,1L24,15.1c0,0-7.1,2.7-5.4,9.6c1.7,6.9,5.5,8.2,9.4,8.1c0.8,0,1.5-0.1,2.1-0.2c-0.1,1.5-0.1,3,0.1,4.4
				L32,52C33.4,63,42.7,71.4,53.8,71.4c0,0,0.1,0,0.1,0l38.7-0.5C103,70.9,112,63.3,114,53.1l3.2-16.4c0-0.2,0.1-0.5,0.1-0.7
				c2.8-3.4,6.7-2.4,10.8-3.5v0c4,1.1,8.1,0.1,10.9,3.5c0,0.2,0.1,0.5,0.2,0.7l3.2,16.4c2,10.2,11,17.8,21.4,17.9l38.7,0.5
				c0,0,0.1,0,0.1,0c11,0,20.3-8.5,21.7-19.4l1.9-14.9c0.2-1.5,0.2-2.9,0.1-4.4c0.6,0.1,1.3,0.2,2.1,0.2c3.8,0.1,7.7-1.2,9.4-8.1
				C239.4,17.8,232.3,15.1,232.3,15.1z M110.2,35.3l-3.2,16.4c-1.3,7-7.5,12.3-14.6,12.3l-38.7,0.5c0,0-0.1,0-0.1,0
				c-7.5,0-13.8-5.8-14.8-13.3l-1.9-14.8c-0.6-4.5,0.9-9.5,4-13.3c2.6-3.2,6-5.1,9.6-5.4l41.1-1.1l0.2,0c2.1-0.2,4.4,0.2,6.4,0.9
				l2.7,1C107.7,21.1,111.6,28.1,110.2,35.3z M219.1,36.3l-1.9,14.8c-0.9,7.4-7.3,13.3-14.8,13.3c0,0-0.1,0-0.1,0l-38.7-0.5
				c-7.1,0-13.2-5.4-14.6-12.3L146,35.2c-1.4-7.1,2.5-14.2,9.3-16.8l2.7-1c2-0.8,4.2-1.1,6.4-0.9l0.2,0l41.1,1.1
				c3.6,0.3,7,2.2,9.6,5.4C218.2,26.8,219.7,31.8,219.1,36.3z"/>
		</g>
	</g>
</g>
</svg>
