<?xml version="1.0" encoding="utf-8"?>
<!-- Generator: Adobe Illustrator 19.2.0, SVG Export Plug-In . SVG Version: 6.00 Build 0)  -->
<svg version="1.1" id="Layer_1" xmlns="http://www.w3.org/2000/svg" xmlns:xlink="http://www.w3.org/1999/xlink" x="0px" y="0px"
	 viewBox="0 0 64 32.7" style="enable-background:new 0 0 64 32.7;" xml:space="preserve">
<style type="text/css">
	.st0{fill:#808080;}
</style>
<g id="Layer_1_1_">
	<rect x="36.9" y="14.7" width="2.6" height="10.4"/>
	<rect x="32.9" y="18.7" width="10.4" height="2.6"/>
	<polygon class="st0" points="38.7,9 32.9,14.7 30.3,17.3 26.2,13.1 20.4,18.9 21.5,20 26.2,15.3 29.2,18.4 24.5,23 25.7,24.2 
		30.3,19.5 34,15.8 38.7,11.1 42.3,14.8 43.4,13.6 	"/>
	<g>
		<polygon points="27.7,5.9 27.7,8.5 40.8,8.5 40.8,15.3 43.4,15.3 43.4,5.9 		"/>
		<polygon points="22.5,13.2 19.9,13.2 19.9,25.2 34,25.2 34,22.6 22.5,22.6 		"/>
	</g>
	<polygon points="19.9,12.1 26.7,12.1 26.7,5.9 	"/>
</g>
<g id="Layer_2">
</g>
</svg>
